<?xml version="1.0" encoding="UTF-8"?>
<svg xmlns="http://www.w3.org/2000/svg" xmlns:xlink="http://www.w3.org/1999/xlink" viewBox="0 0 72 72" width="72px" height="72px">
<g id="surface98031900">
<path style=" stroke:none;fill-rule:nonzero;fill:rgb(14.117648%,14.901961%,20.784314%);fill-opacity:1;" d="M 36 11.800781 C 22.480469 11.800781 11.519531 22.761719 11.519531 36.28125 C 11.519531 49.800781 22.480469 60.761719 36 60.761719 C 49.519531 60.761719 60.480469 49.800781 60.480469 36.28125 C 60.480469 22.761719 49.519531 11.800781 36 11.800781 Z M 36 13.242188 C 48.726562 13.242188 59.039062 23.554688 59.039062 36.28125 C 59.039062 46.816406 51.960938 55.679688 42.308594 58.425781 C 42.113281 58.128906 41.96875 57.785156 41.980469 57.378906 C 42.019531 55.855469 41.980469 52.308594 41.980469 51.003906 C 41.980469 48.769531 40.566406 47.183594 40.566406 47.183594 C 40.566406 47.183594 51.664062 47.308594 51.664062 35.460938 C 51.664062 30.890625 49.28125 28.511719 49.28125 28.511719 C 49.28125 28.511719 50.535156 23.632812 48.84375 21.5625 C 46.949219 21.359375 43.558594 23.375 42.113281 24.3125 C 42.113281 24.3125 39.820312 23.375 36.003906 23.375 C 32.183594 23.375 29.890625 24.3125 29.890625 24.3125 C 28.441406 23.375 25.050781 21.359375 23.15625 21.5625 C 21.46875 23.632812 22.722656 28.511719 22.722656 28.511719 C 22.722656 28.511719 20.335938 30.890625 20.335938 35.460938 C 20.335938 47.304688 31.433594 47.179688 31.433594 47.179688 C 31.433594 47.179688 30.316406 48.4375 30.070312 50.292969 C 29.304688 50.566406 28.246094 50.890625 27.234375 50.890625 C 24.828125 50.890625 22.996094 48.550781 22.324219 47.464844 C 21.664062 46.398438 20.304688 45.5 19.039062 45.5 C 18.207031 45.5 17.796875 45.917969 17.796875 46.394531 C 17.796875 46.871094 18.964844 47.203125 19.738281 48.085938 C 21.367188 49.945312 21.335938 54.136719 27.128906 54.136719 C 27.8125 54.136719 29.039062 53.984375 30.019531 53.847656 C 30.015625 55.207031 30 56.535156 30.019531 57.375 C 30.03125 57.78125 29.886719 58.128906 29.691406 58.425781 C 20.039062 55.679688 12.960938 46.816406 12.960938 36.28125 C 12.960938 23.554688 23.273438 13.242188 36 13.242188 Z M 36 13.242188 "/>
</g>
</svg>
