<?xml version="1.0" encoding="UTF-8"?>
<svg xmlns="http://www.w3.org/2000/svg" xmlns:xlink="http://www.w3.org/1999/xlink" viewBox="0 0 40 40" width="40px" height="40px">
<g id="surface97980043">
<path style=" stroke:none;fill-rule:nonzero;fill:rgb(14.117648%,14.901961%,20.784314%);fill-opacity:1;" d="M 20 3.332031 C 10.808594 3.332031 3.332031 10.808594 3.332031 20 C 3.332031 29.191406 10.808594 36.667969 20 36.667969 C 29.191406 36.667969 36.667969 29.191406 36.667969 20 C 36.667969 10.808594 29.191406 3.332031 20 3.332031 Z M 20 5.832031 C 27.839844 5.832031 34.167969 12.160156 34.167969 20 C 34.167969 26.984375 29.140625 32.753906 22.5 33.933594 L 22.5 24.167969 L 25.519531 24.167969 C 25.941406 24.167969 26.296875 23.851562 26.347656 23.4375 L 26.660156 20.9375 C 26.691406 20.699219 26.613281 20.460938 26.457031 20.28125 C 26.300781 20.101562 26.074219 20 25.832031 20 L 22.5 20 L 22.5 17.082031 C 22.5 16.164062 23.246094 15.417969 24.167969 15.417969 L 25.832031 15.417969 C 26.292969 15.417969 26.667969 15.042969 26.667969 14.582031 L 26.667969 11.769531 C 26.667969 11.339844 26.335938 10.980469 25.90625 10.941406 C 25.859375 10.9375 24.683594 10.832031 23.195312 10.832031 C 19.523438 10.832031 17.5 13.011719 17.5 16.972656 L 17.5 20 L 14.167969 20 C 13.707031 20 13.332031 20.371094 13.332031 20.832031 L 13.332031 23.332031 C 13.332031 23.792969 13.707031 24.167969 14.167969 24.167969 L 17.5 24.167969 L 17.5 33.933594 C 10.859375 32.753906 5.832031 26.984375 5.832031 20 C 5.832031 12.160156 12.160156 5.832031 20 5.832031 Z M 20 5.832031 "/>
</g>
</svg>
