<?xml version="1.0" encoding="UTF-8"?>
<svg xmlns="http://www.w3.org/2000/svg" xmlns:xlink="http://www.w3.org/1999/xlink" viewBox="0 0 64 64" width="64px" height="64px">
<g id="surface97928305">
<path style=" stroke:none;fill-rule:nonzero;fill:rgb(14.117648%,14.901961%,20.784314%);fill-opacity:1;" d="M 32 5.332031 C 17.296875 5.332031 5.332031 17.296875 5.332031 32 C 5.332031 46.703125 17.296875 58.667969 32 58.667969 C 46.703125 58.667969 58.667969 46.703125 58.667969 32 C 58.667969 17.296875 46.703125 5.332031 32 5.332031 Z M 32 9.332031 C 44.542969 9.332031 54.667969 19.457031 54.667969 32 C 54.667969 43.175781 46.621094 52.410156 36 54.292969 L 36 38.667969 L 40.832031 38.667969 C 41.503906 38.667969 42.074219 38.164062 42.15625 37.496094 L 42.65625 33.496094 C 42.703125 33.117188 42.585938 32.738281 42.332031 32.449219 C 42.078125 32.164062 41.714844 32 41.332031 32 L 36 32 L 36 27.332031 C 36 25.863281 37.195312 24.667969 38.667969 24.667969 L 41.332031 24.667969 C 42.070312 24.667969 42.667969 24.070312 42.667969 23.332031 L 42.667969 18.832031 C 42.667969 18.144531 42.140625 17.566406 41.453125 17.503906 C 41.375 17.5 39.492188 17.332031 37.113281 17.332031 C 31.234375 17.332031 28 20.820312 28 27.15625 L 28 32 L 22.667969 32 C 21.929688 32 21.332031 32.597656 21.332031 33.332031 L 21.332031 37.332031 C 21.332031 38.070312 21.929688 38.667969 22.667969 38.667969 L 28 38.667969 L 28 54.292969 C 17.378906 52.410156 9.332031 43.175781 9.332031 32 C 9.332031 19.457031 19.457031 9.332031 32 9.332031 Z M 32 9.332031 "/>
</g>
</svg>
