<?xml version="1.0" encoding="UTF-8"?>
<svg xmlns="http://www.w3.org/2000/svg" xmlns:xlink="http://www.w3.org/1999/xlink" viewBox="0 0 20 20" width="20px" height="20px">
<g id="surface98042730">
<path style=" stroke:none;fill-rule:nonzero;fill:rgb(14.117648%,14.901961%,20.784314%);fill-opacity:1;" d="M 3.199219 1.203125 C 1.8125 1.203125 0.804688 2.035156 0.804688 3.179688 C 0.804688 4.328125 1.835938 5.195312 3.199219 5.195312 C 4.589844 5.195312 5.597656 4.347656 5.597656 3.15625 C 5.53125 2.007812 4.542969 1.203125 3.199219 1.203125 Z M 1.199219 6 C 0.980469 6 0.800781 6.179688 0.800781 6.398438 L 0.800781 18 C 0.800781 18.21875 0.980469 18.398438 1.199219 18.398438 L 5.199219 18.398438 C 5.421875 18.398438 5.601562 18.21875 5.601562 18 L 5.601562 6.398438 C 5.601562 6.179688 5.421875 6 5.199219 6 Z M 7.199219 6 C 6.980469 6 6.800781 6.179688 6.800781 6.398438 L 6.800781 18 C 6.800781 18.21875 6.980469 18.398438 7.199219 18.398438 L 10.800781 18.398438 C 11.019531 18.398438 11.199219 18.222656 11.199219 18 L 11.199219 11.800781 C 11.199219 10.851562 11.929688 10.078125 12.855469 10.007812 C 12.902344 10 12.953125 10 13 10 C 13.046875 10 13.097656 10 13.144531 10.007812 C 14.070312 10.078125 14.800781 10.851562 14.800781 11.800781 L 14.800781 18 C 14.800781 18.222656 14.980469 18.398438 15.199219 18.398438 L 18.800781 18.398438 C 19.019531 18.398438 19.199219 18.21875 19.199219 18 L 19.199219 11.199219 C 19.199219 8.613281 17.8125 6 14.714844 6 C 13.308594 6 12.242188 6.542969 11.601562 6.996094 L 11.601562 6.398438 C 11.601562 6.179688 11.421875 6 11.199219 6 Z M 7.199219 6 "/>
</g>
</svg>
