<?xml version="1.0" standalone="no"?>
<!DOCTYPE svg PUBLIC "-//W3C//DTD SVG 20010904//EN"
 "http://www.w3.org/TR/2001/REC-SVG-20010904/DTD/svg10.dtd">
<svg version="1.0" xmlns="http://www.w3.org/2000/svg"
 width="920.000000pt" height="619.000000pt" viewBox="0 0 920.000000 619.000000"
 preserveAspectRatio="xMidYMid meet">
<metadata>
Created by potrace 1.16, written by Peter Selinger 2001-2019
</metadata>
<g transform="translate(0.000000,619.000000) scale(0.100000,-0.100000)"
fill="#000000" stroke="none">
<path d="M4070 5990 c-1035 -34 -1486 -128 -1736 -362 -166 -155 -241 -341
-286 -703 -18 -147 -18 -928 0 -1150 29 -366 80 -733 138 -1005 83 -390 219
-607 467 -744 295 -163 875 -228 2000 -225 1046 4 1585 63 1872 206 198 99
331 246 415 456 76 190 158 599 195 967 66 668 72 1295 14 1630 -85 494 -316
720 -843 825 -452 89 -1377 133 -2236 105z m1420 -29 c422 -28 708 -63 907
-112 440 -107 642 -312 713 -724 34 -196 43 -394 37 -775 -8 -482 -45 -886
-117 -1290 -132 -742 -319 -955 -933 -1060 -62 -10 -142 -22 -178 -25 -35 -3
-95 -10 -134 -15 -38 -5 -119 -12 -180 -16 -60 -3 -128 -8 -150 -10 -265 -23
-1384 -23 -1700 1 -27 2 -95 6 -150 10 -97 6 -339 31 -380 39 -11 2 -45 7 -75
11 -30 4 -82 13 -116 21 -33 7 -69 15 -80 17 -93 17 -255 81 -335 132 -157
101 -255 239 -328 461 -193 590 -290 1950 -180 2523 39 202 114 356 227 463
245 234 605 311 1687 362 156 7 1311 -3 1465 -13z"/>
<path d="M4005 5824 c-672 -28 -1102 -90 -1316 -191 -335 -159 -429 -399 -446
-1143 -14 -654 61 -1436 177 -1831 17 -57 52 -147 77 -199 39 -79 61 -109 132
-180 167 -166 361 -233 801 -274 674 -64 1935 -56 2500 14 124 16 266 46 356
76 280 93 429 266 519 599 120 444 193 1286 166 1918 -23 516 -77 716 -240
878 -191 190 -456 261 -1181 315 -191 14 -1316 27 -1545 18z m1520 -55 c99 -5
209 -13 245 -17 61 -7 63 -8 41 -21 -13 -7 -21 -8 -17 -3 18 29 -394 40 -1294
36 -745 -3 -902 -7 -1030 -23 l-55 -7 43 -23 43 -22 202 15 c598 46 1230 46
1820 1 165 -13 193 -13 225 0 21 8 29 9 18 2 -55 -36 -55 -36 -150 -407 -52
-201 -112 -432 -134 -515 -22 -82 -56 -213 -77 -290 -81 -305 -172 -569 -237
-685 -71 -127 -162 -202 -285 -236 -57 -16 -104 -19 -283 -19 -198 0 -220 2
-282 23 -167 58 -251 159 -353 422 -57 147 -217 720 -382 1369 l-78 305 -60
35 -60 35 55 8 c127 18 448 25 1155 25 413 0 831 -4 930 -8z m-2155 -13 c0
-39 243 -1116 332 -1471 118 -474 179 -626 293 -741 144 -144 285 -180 674
-171 192 4 237 8 299 26 253 74 361 212 473 604 76 263 222 886 343 1457 l63
295 29 -3 c133 -14 252 -55 309 -108 13 -12 47 -27 77 -34 195 -46 321 -120
404 -236 108 -150 137 -294 156 -748 12 -292 2 -775 -21 -1001 -5 -49 -12
-121 -16 -160 -11 -136 -36 -331 -55 -448 -21 -126 -24 -161 -9 -112 15 51 67
431 83 610 31 340 39 592 32 975 -3 206 -8 391 -11 410 -3 24 -1 21 6 -10 6
-24 17 -53 25 -64 11 -16 11 -23 1 -35 -8 -9 -8 -12 -1 -8 26 15 38 -150 38
-498 -1 -606 -57 -1149 -165 -1600 -10 -44 -19 -90 -19 -102 0 -27 25 -31 39
-5 6 9 11 12 11 7 0 -6 -23 -57 -51 -115 -44 -89 -64 -117 -133 -185 -119
-118 -247 -178 -477 -224 -301 -59 -896 -86 -1704 -78 -844 9 -1195 39 -1455
123 -214 69 -337 173 -436 371 -49 98 -52 108 -24 91 10 -7 22 -9 26 -5 4 4
-5 60 -19 125 -110 484 -167 1032 -167 1612 1 285 19 518 41 505 5 -4 6 1 3 9
-3 9 -1 16 6 16 6 0 9 3 6 8 -2 4 0 23 4 42 7 24 8 0 5 -75 -15 -362 -16 -459
-5 -735 12 -313 26 -521 28 -425 1 28 -3 136 -9 240 -13 248 -13 806 0 964 12
130 40 288 64 357 75 210 219 334 457 395 47 11 94 29 105 39 11 10 36 28 55
40 l35 21 -45 -6 c-38 -5 -201 -41 -275 -61 -15 -4 -17 -3 -5 4 28 18 215 62
345 82 72 11 150 24 175 29 58 11 60 12 60 7z m1869 -2107 c-28 -124 -124
-202 -287 -233 -94 -17 -636 -15 -712 3 -63 16 -145 54 -177 83 -25 23 -66
119 -61 143 3 15 6 15 29 -4 39 -30 169 -71 273 -84 103 -14 468 -16 566 -4
148 18 237 50 325 115 22 16 43 28 46 26 4 -2 3 -22 -2 -45z"/>
<path d="M3065 5636 c-35 -34 -36 -37 -31 -88 3 -29 8 -143 11 -253 10 -326
24 -644 55 -1195 25 -439 89 -1169 140 -1595 44 -365 40 -344 69 -364 79 -56
192 -96 326 -116 l80 -12 78 41 77 41 21 70 c115 390 191 604 237 665 85 113
204 150 477 150 259 0 383 -34 466 -128 53 -61 127 -256 237 -627 l39 -130 77
-41 c76 -40 78 -40 144 -32 132 17 340 95 361 137 10 18 12 37 46 336 94 829
157 1708 189 2640 3 83 8 225 12 316 l6 166 -30 22 c-17 11 -32 21 -34 21 -1
0 -3 -24 -3 -53 1 -28 -2 -108 -6 -177 -4 -69 -10 -181 -14 -250 -4 -69 -8
-146 -10 -172 -3 -26 -7 -87 -10 -135 -13 -195 -24 -322 -30 -373 -2 -19 -7
-69 -11 -110 -3 -41 -8 -86 -9 -100 -2 -14 -6 -56 -10 -95 -3 -38 -9 -86 -12
-105 -2 -19 -6 -62 -8 -95 -2 -33 -5 -60 -5 -60 -3 0 -10 -40 -14 -80 -3 -22
-8 -58 -12 -80 -4 -22 -7 -50 -8 -62 0 -13 -5 -23 -10 -23 -6 0 -4 -5 4 -10 9
-6 10 -10 3 -10 -6 0 -10 -9 -8 -20 2 -11 -2 -20 -8 -20 -7 0 -6 -4 3 -10 11
-7 11 -10 2 -10 -7 0 -11 -4 -7 -9 3 -5 1 -12 -3 -15 -5 -3 -8 -17 -7 -31 2
-14 -1 -27 -6 -31 -5 -3 -5 -13 1 -25 9 -15 7 -21 -5 -26 -13 -5 -14 -7 -3
-14 10 -7 10 -9 -2 -9 -13 0 -13 -1 0 -10 11 -7 11 -10 2 -10 -7 0 -10 -4 -7
-10 3 -5 0 -10 -7 -10 -9 0 -9 -3 2 -10 13 -9 13 -10 0 -10 -13 0 -13 -1 0
-10 12 -8 12 -10 -5 -10 -17 0 -17 -2 -5 -10 13 -9 13 -10 0 -10 -13 0 -13 -1
0 -10 13 -8 13 -10 -1 -10 -9 0 -16 -7 -16 -15 0 -12 3 -12 16 -2 14 10 14 10
3 -5 -8 -9 -11 -21 -8 -27 4 -5 0 -15 -7 -23 -17 -17 -28 -56 -17 -63 5 -3 4
-21 -1 -40 -6 -19 -7 -40 -4 -45 4 -6 -4 -14 -17 -19 -21 -9 -21 -10 -3 -11
l20 -1 -20 -9 c-11 -5 -15 -9 -8 -9 13 -1 12 -26 -2 -38 -4 -4 -5 -3 -1 4 3 6
2 14 -3 18 -6 3 -8 -4 -5 -17 3 -13 6 -31 6 -41 -1 -21 -21 -49 -31 -43 -4 3
-7 -3 -8 -12 -2 -25 -8 -45 -16 -59 -4 -6 0 -19 9 -27 9 -9 11 -16 4 -16 -6 0
-8 -5 -4 -12 4 -7 3 -8 -5 -4 -6 4 -9 11 -6 16 3 5 1 11 -4 14 -5 4 -8 -2 -6
-11 2 -10 4 -24 4 -31 1 -8 6 -10 14 -6 6 4 3 -3 -8 -17 -24 -29 -37 -39 -45
-34 -4 2 -6 -6 -5 -18 2 -26 -15 -68 -25 -62 -4 2 -7 -2 -7 -10 0 -8 4 -12 9
-9 4 3 8 0 8 -6 0 -6 6 -8 13 -4 6 4 5 -1 -4 -12 -23 -28 -40 -74 -33 -86 4
-6 2 -8 -3 -5 -13 8 -26 -20 -17 -36 3 -7 -2 -3 -10 7 -9 11 -16 25 -16 30 0
6 4 5 8 -2 6 -9 12 -5 20 13 9 19 9 31 2 43 -9 14 -10 12 -4 -8 6 -23 6 -24
-12 -10 -15 11 -16 11 -6 0 17 -20 15 -35 -4 -20 -8 8 -14 9 -13 4 1 -5 -1
-21 -5 -36 -6 -19 -13 -25 -27 -23 -10 2 -18 1 -18 -3 4 -22 -2 -42 -10 -37
-5 3 -13 0 -17 -6 -4 -7 -3 -9 4 -5 6 3 16 -2 22 -11 11 -17 11 -17 6 0 -3 10
-2 16 3 13 5 -4 7 2 4 13 -3 10 0 22 6 25 6 4 9 -4 6 -21 -8 -52 -11 -62 -20
-70 -4 -4 -5 -3 -2 3 8 13 -20 40 -30 30 -3 -3 -2 -6 4 -6 5 0 10 -7 10 -15 0
-8 -4 -12 -8 -10 -7 5 -23 -24 -21 -36 0 -3 -5 -6 -13 -6 -8 0 -12 4 -9 9 3 4
0 8 -7 8 -7 0 -9 -8 -6 -21 3 -12 3 -18 0 -15 -4 3 -12 1 -19 -5 -9 -8 -9 -1
2 21 11 20 21 29 31 26 8 -4 11 -1 8 5 -4 6 -13 8 -20 5 -7 -2 -19 1 -26 7 -8
8 -8 5 1 -7 14 -18 13 -19 -5 -12 -16 6 -18 5 -7 -5 18 -19 15 -34 -5 -18 -14
12 -16 12 -8 0 5 -8 9 -38 10 -65 1 -28 1 -46 -1 -41 -2 6 -28 96 -58 200
-144 502 -216 608 -443 661 -94 22 -461 30 -591 14 -294 -37 -376 -127 -506
-555 -77 -255 -96 -311 -90 -272 3 21 8 46 11 55 4 13 2 12 -10 -3 -8 -11 -13
-24 -10 -30 3 -5 0 -5 -7 2 -11 10 -11 15 1 30 13 16 12 17 -3 4 -17 -13 -26
-2 -11 13 4 3 8 14 9 22 1 9 -1 13 -4 9 -4 -4 -7 -11 -7 -16 0 -5 -4 -8 -10
-6 -5 1 -9 5 -8 9 2 5 -3 7 -10 5 -6 -1 -11 5 -9 13 2 8 0 11 -4 7 -8 -7 -14
-29 -16 -54 -1 -7 -5 -10 -9 -8 -4 3 -5 14 -2 24 3 11 0 28 -6 38 -10 16 -11
15 -8 -7 2 -14 2 -19 0 -12 -3 7 -9 9 -14 6 -6 -3 -13 3 -16 15 -3 11 -10 18
-16 14 -5 -3 -7 -1 -4 4 4 6 -2 18 -13 28 -11 10 -20 23 -20 29 0 6 5 4 11 -4
8 -11 9 -9 3 10 -6 22 -5 23 10 11 13 -11 14 -17 4 -30 -11 -14 -11 -14 3 -4
9 7 20 10 25 6 5 -4 -8 11 -29 33 -20 22 -34 44 -30 49 5 4 2 4 -6 0 -11 -6
-13 -4 -8 9 4 9 3 15 -2 11 -6 -3 -9 -14 -8 -25 1 -10 5 -16 11 -13 5 4 6 1 2
-6 -5 -7 -11 -10 -14 -6 -12 12 -12 48 0 63 10 13 10 14 0 8 -7 -4 -15 -1 -18
8 -3 9 -11 16 -17 16 -5 0 -3 -8 6 -18 14 -15 15 -19 2 -19 -8 0 -12 4 -9 8 2
4 0 10 -6 14 -6 4 -3 16 8 33 9 14 12 23 5 19 -6 -4 -14 -3 -18 3 -4 6 -10 8
-14 6 -4 -3 -8 16 -9 42 -3 66 -4 72 -14 66 -4 -3 -4 -14 2 -24 6 -10 6 -21 2
-24 -10 -6 -14 16 -11 67 0 18 -6 46 -14 53 -7 8 -1 -31 8 -45 3 -5 2 -12 -3
-15 -9 -5 -12 8 -13 56 -1 15 -5 26 -9 23 -3 -2 -7 2 -7 10 0 8 4 12 9 9 8 -5
-2 28 -11 36 -3 3 -12 16 -20 30 -13 23 -13 24 2 12 13 -11 15 -10 10 7 -3 12
-10 18 -17 14 -8 -4 -8 -3 0 6 13 14 7 51 -8 51 -5 0 -8 10 -7 23 2 12 -3 33
-10 46 -7 13 -9 21 -4 18 5 -4 10 0 10 8 0 8 -4 12 -8 10 -4 -3 -9 2 -13 10
-3 8 0 17 6 21 7 5 5 12 -7 21 -14 9 -15 13 -4 13 12 0 12 2 -1 10 -11 7 -12
10 -2 10 10 0 10 4 -2 16 -17 17 -21 28 -7 20 5 -4 8 1 7 10 -1 8 -9 20 -17
25 -12 7 -12 9 1 9 9 0 11 3 4 8 -5 4 -10 17 -11 30 0 12 -2 23 -3 25 -1 1 -3
13 -6 27 -2 14 -7 32 -10 40 -4 8 -8 31 -10 50 -1 19 -6 51 -9 70 -4 19 -8 40
-9 45 -1 6 -6 16 -10 24 -7 10 -6 12 4 6 9 -5 11 -4 6 3 -10 16 -15 47 -31
175 -3 23 -8 53 -10 67 -3 14 -7 45 -10 70 -3 25 -7 61 -10 80 -2 19 -7 60
-10 90 -4 30 -8 66 -10 80 -2 14 -6 75 -9 135 -4 61 -8 139 -11 175 -11 152
-15 224 -20 375 -4 88 -8 174 -10 190 -3 28 -17 426 -19 542 -1 29 -4 53 -8
53 -4 0 -23 -15 -43 -34z m1910 -2601 c61 -21 105 -53 125 -91 8 -16 19 -32
25 -36 5 -4 6 -10 3 -13 -4 -4 -17 3 -30 15 -37 36 -85 51 -228 72 -151 21
-353 25 -470 8 -41 -6 -95 -14 -120 -16 -25 -3 -63 -11 -85 -17 -65 -17 -66
-17 -39 16 37 46 101 73 176 76 34 1 64 3 65 5 1 1 121 1 265 0 217 -2 272 -5
313 -19z"/>
<path d="M3852 2060 c-33 -16 -32 -16 70 -20 135 -5 1232 -5 1372 0 105 4 108
5 76 18 -28 11 -168 14 -760 15 -636 2 -729 0 -758 -13z"/>
<path d="M2670 1124 c-161 -18 -225 -28 -290 -46 -287 -78 -440 -254 -440
-508 0 -354 302 -550 846 -550 327 0 554 65 699 201 115 108 165 253 144 418
-31 253 -222 411 -561 466 -91 14 -335 26 -398 19z m305 -220 c67 -25 137 -95
159 -159 9 -28 20 -87 23 -131 11 -152 -33 -281 -115 -338 -105 -72 -325 -84
-463 -25 -67 29 -124 94 -146 166 -21 68 -23 234 -5 300 30 102 116 180 224
203 70 15 265 5 323 -16z"/>
<path d="M0 1022 l0 -69 87 -10 c131 -16 123 8 123 -372 0 -316 0 -318 -22
-338 -14 -13 -43 -24 -73 -28 -27 -3 -65 -8 -83 -11 l-33 -5 3 -67 3 -67 405
-1 c223 0 410 1 415 3 6 2 9 30 7 68 -4 72 -1 70 -101 80 -95 11 -101 20 -101
155 l0 110 320 0 320 0 0 -104 c0 -132 -12 -151 -98 -161 -121 -13 -113 -8
-110 -83 l3 -67 413 0 412 0 0 67 c0 75 8 68 -105 83 -65 9 -81 18 -94 56 -16
47 -15 596 2 629 17 34 51 48 130 55 l67 7 0 69 0 69 -415 0 -415 0 0 -69 0
-69 68 -6 c130 -13 142 -28 142 -171 l0 -95 -150 0 c-82 0 -213 -1 -290 -1
-77 0 -153 1 -170 1 l-30 0 0 104 c0 136 6 144 118 158 l82 11 0 68 0 69 -415
0 -415 0 0 -68z"/>
<path d="M3680 1022 l0 -69 87 -10 c131 -16 123 8 123 -368 0 -367 3 -358 -97
-369 -121 -14 -114 -9 -111 -84 l3 -67 330 0 330 0 3 67 c3 75 10 70 -109 83
-41 4 -63 13 -78 29 -21 22 -21 29 -19 304 l3 280 152 -201 c84 -111 211 -279
283 -374 74 -98 140 -175 153 -179 12 -4 145 -8 295 -9 l272 -1 0 408 c0 281
3 415 11 432 14 31 46 43 132 52 l67 6 0 69 0 69 -330 0 -330 0 0 -69 0 -68
81 -11 c50 -6 88 -16 98 -26 14 -14 17 -56 21 -301 3 -157 2 -284 -2 -283 -8
3 -105 129 -408 531 -85 114 -165 211 -178 216 -15 7 -158 11 -402 11 l-380 0
0 -68z"/>
<path d="M5590 1022 l0 -70 73 -7 c90 -9 104 -16 117 -63 12 -46 13 -552 0
-607 -11 -50 -29 -62 -99 -70 -107 -12 -101 -7 -101 -83 l0 -68 588 2 c511 1
597 4 666 18 209 45 340 133 411 274 34 67 44 123 45 229 0 206 -89 347 -273
433 -159 74 -151 73 -824 77 l-603 4 0 -69z m1071 -143 c51 -17 97 -55 119
-98 28 -57 44 -162 36 -256 -7 -102 -28 -163 -69 -205 -58 -60 -79 -64 -329
-68 l-228 -4 0 321 0 321 219 0 c136 0 231 -4 252 -11z"/>
<path d="M7560 1021 l0 -68 94 -11 c114 -13 136 -23 136 -61 0 -29 -365 -632
-397 -657 -10 -7 -43 -16 -73 -19 -118 -13 -111 -8 -108 -83 l3 -67 330 0 330
0 3 66 c3 75 -1 79 -85 79 -30 0 -50 7 -70 25 l-28 24 32 58 31 58 325 3 325
2 31 -48 c17 -27 31 -56 31 -64 0 -25 -36 -49 -82 -54 -24 -3 -58 -7 -75 -10
l-33 -5 0 -67 0 -67 448 0 447 0 3 67 3 67 -33 5 c-18 3 -55 8 -83 11 -86 11
-50 -36 -437 560 -93 143 -185 275 -204 293 l-34 32 -415 0 -415 0 0 -69z
m616 -297 c52 -80 98 -152 101 -160 4 -12 -25 -14 -196 -14 -111 0 -201 2
-201 5 0 7 191 315 196 315 3 0 48 -66 100 -146z"/>
</g>
</svg>
